<svg width="40" height="40" viewBox="24 0 512 512" fill="none" xmlns="http://www.w3.org/2000/svg">
<g filter="url(#filter0_d_5_6)">
<g clip-path="url(#paint0_diamond_5_6_clip_path)"><g transform="matrix(-0.2185 0 0 -0.7955 250.703 255.5)"><rect x="0" y="0" width="1019.23" height="275.927" fill="url(#paint0_diamond_5_6)" opacity="1" shape-rendering="crispEdges"/><rect x="0" y="0" width="1019.23" height="275.927" transform="scale(1 -1)" fill="url(#paint0_diamond_5_6)" opacity="1" shape-rendering="crispEdges"/><rect x="0" y="0" width="1019.23" height="275.927" transform="scale(-1 1)" fill="url(#paint0_diamond_5_6)" opacity="1" shape-rendering="crispEdges"/><rect x="0" y="0" width="1019.23" height="275.927" transform="scale(-1)" fill="url(#paint0_diamond_5_6)" opacity="1" shape-rendering="crispEdges"/></g></g><path d="M250.703 474L167.203 402L83.7025 330C83.7025 330 29 280 29 216C29 152 29 90 29 90L139.851 63.5L250.703 37L361.554 63.5L472.405 90C472.405 90 472.405 160 472.405 216C472.405 272 416.703 330 416.703 330L250.703 474Z"/>
</g>
<defs>
<filter id="filter0_d_5_6" x="29" y="37" width="481.405" height="445" filterUnits="userSpaceOnUse" color-interpolation-filters="sRGB">
<feFlood flood-opacity="0" result="BackgroundImageFix"/>
<feColorMatrix in="SourceAlpha" type="matrix" values="0 0 0 0 0 0 0 0 0 0 0 0 0 0 0 0 0 0 127 0" result="hardAlpha"/>
<feOffset dx="34" dy="4"/>
<feGaussianBlur stdDeviation="2"/>
<feComposite in2="hardAlpha" operator="out"/>
<feColorMatrix type="matrix" values="0 0 0 0 0 0 0 0 0 0 0 0 0 0 0 0 0 0 0.25 0"/>
<feBlend mode="normal" in2="BackgroundImageFix" result="effect1_dropShadow_5_6"/>
<feBlend mode="normal" in="SourceGraphic" in2="effect1_dropShadow_5_6" result="shape"/>
</filter>
<clipPath id="paint0_diamond_5_6_clip_path"><path d="M250.703 474L167.203 402L83.7025 330C83.7025 330 29 280 29 216C29 152 29 90 29 90L139.851 63.5L250.703 37L361.554 63.5L472.405 90C472.405 90 472.405 160 472.405 216C472.405 272 416.703 330 416.703 330L250.703 474Z"/></clipPath><linearGradient id="paint0_diamond_5_6" x1="0" y1="0" x2="500" y2="500" gradientUnits="userSpaceOnUse">
<stop stop-color="#CECECE"/>
<stop offset="1" stop-color="#6A6A6A"/>
</linearGradient>
</defs>
</svg>
